<svg xmlns="http://www.w3.org/2000/svg" viewBox="0 0 268.61 56.7"><defs><style>.a{fill:#212e50;}.b{fill:#e5f4f6;}</style></defs><rect class="a" width="268.61" height="56.7" rx="3.74"/><polygon class="b" points="73.64 12.52 77.04 22.99 88.05 22.99 79.14 29.46 82.55 39.92 73.64 33.45 64.74 39.92 68.14 29.46 59.24 22.99 70.24 22.99 73.64 12.52"/><polygon class="b" points="113.48 12.52 116.88 22.99 127.89 22.99 118.98 29.46 122.38 39.92 113.48 33.45 104.58 39.92 107.98 29.46 99.08 22.99 110.08 22.99 113.48 12.52"/><polygon class="b" points="153.32 12.52 156.72 22.99 167.72 22.99 158.82 29.46 162.22 39.92 153.32 33.45 144.42 39.92 147.82 29.46 138.92 22.99 149.92 22.99 153.32 12.52"/><polygon class="b" points="193.16 12.52 196.56 22.99 207.56 22.99 198.66 29.46 202.06 39.92 193.16 33.45 184.26 39.92 187.66 29.46 178.76 22.99 189.76 22.99 193.16 12.52"/></svg>