<svg xmlns="http://www.w3.org/2000/svg" xmlns:xlink="http://www.w3.org/1999/xlink" viewBox="0 0 210.8 345.22"><defs><style>.a{fill:none;}.b{isolation:isolate;}.c{fill:#afbadb;}.ai,.aj,.ak,.al,.c{opacity:0.6;}.aa,.ad,.ae,.aj,.c,.k,.n,.v{mix-blend-mode:multiply;}.d{fill:#1d2130;}.as,.e{fill:#fff;}.f{fill:#2a3250;}.g{fill:#961e1e;}.h{fill:#a32424;}.i{fill:#a3a29f;}.j{fill:#dbad45;}.ad,.aj,.ak,.l{fill:#f2eacc;}.m{fill:#ce7c5b;}.n{fill:#eddad9;}.o{fill:#d38466;}.aa,.ae,.an,.p{opacity:0.4;}.q{fill:#bc5235;}.r{fill:#db916e;}.s{opacity:0.3;}.ak,.al,.am,.an,.as,.s{mix-blend-mode:soft-light;}.am,.an,.t{fill:#eab19b;}.u{fill:#e5a97c;}.v{fill:#e8c4bf;}.w{fill:#f2e9e2;}.x{fill:#21201e;}.y{fill:#e8aa80;}.z{fill:#e59380;}.ab,.ae{fill:#eac6b5;}.ac{fill:#ddb552;}.af{fill:#111010;}.ag{fill:#bc6253;}.ah{fill:#c15d3e;}.ao{clip-path:url(#a);}.ap{fill:#cc1717;}.aq{fill:#155fcc;}.ar{clip-path:url(#b);}</style><clipPath id="a"><path class="a" d="M159.87,173.81a5,5,0,1,1-5-5A5,5,0,0,1,159.87,173.81Z"/></clipPath><clipPath id="b"><path class="a" d="M154.87,168.81h0a5,5,0,0,0-5,5h5Z"/></clipPath></defs><g class="b"><path class="c" d="M192.3,337.18c0,4.44-36.23,8-80.92,8s-80.93-3.6-80.93-8,36.23-8,80.93-8S192.3,332.74,192.3,337.18Z"/><path d="M69.62,328.16a26.56,26.56,0,0,1-13.38,8.66,4.28,4.28,0,0,0,2.14,2.85s9.69,1.93,15.5,0,1.66-4,6.84-6.08c0,0-2.06-6.71-3.86-7.36"/><path class="d" d="M58.91,238.07a890.52,890.52,0,0,0,10.71,90.09s3,2.21,8.82,0c0,0-5.35-55.05,2.28-83.84Z"/><path d="M147.55,328.41a26.56,26.56,0,0,0,13.37,8.66,4.24,4.24,0,0,1-2.14,2.85s-9.68,1.93-15.49,0-1.66-4-6.84-6.07c0,0,2.05-6.72,3.86-7.37"/><path class="d" d="M158.26,238.32a894.33,894.33,0,0,1-10.71,90.09s-3.05,2.22-8.82,0c0,0,5.35-55.05-2.28-83.84Z"/><path class="d" d="M50,233.36s15.24,22.47,58.05,19.89,55.74-27.38,55.74-27.38S76,215,50,233.36Z"/><path class="e" d="M70.27,163s7.23,55.34,11.11,66.71c0,0,26.61,4.4,54.76-1.29,0,0,5.17-57,4.91-65.42Z"/><path class="f" d="M53.87,136.29s-12.79,3.6-21.71,10.36c0,0,5,79.22,12.58,106,0,0,24.77,7,42.91,5,0,0-15.46-73-15.78-89.12L57.46,137.65Z"/><path class="f" d="M155.15,136.75s13,2.64,22.42,8.71c0,0,1,79.37-4.59,106.6,0,0-24.38,6.11-42.61,5.54,0,0,10.14-71.23,9.25-87.36l12-31.85Z"/><path class="g" d="M100.55,173.85l-3.68,46.89s7.55,15.3,11.82,18.4c0,0,8.11-12.2,9.86-20.73,0,0-9.49-40.1-10.84-45.34Z"/><path class="d" d="M53,135.29s-6.84,8.62-3,31.48h8.71l-5,6.3s7.66,30.24,26.26,45.4c0,0-7.22-38.21-7.69-44.08L57.93,138.1Z"/><path class="d" d="M159.08,134.65s5,6.93,4.71,25.34l-7.64,3,7.64,5.49s-7.82,35.26-27.86,46.42c0,0,3.07-26.72,3.42-34.15l15.85-46.14Z"/><path class="h" d="M91.06,178.4s4.85,8.78,13,10,15.1-13.11,15.1-13.11l-12.9-6.78Z"/><path class="e" d="M105.79,173.07,83.44,186.86s-27.08-25.73-27.1-48.26l99.81-.95s-3.21,34.48-24.66,50.76Z"/><path class="i" d="M105.79,173.07,83.54,187l-.12.08-.11-.11a122.8,122.8,0,0,1-9.58-10.43A118.75,118.75,0,0,1,65.4,165.1q-1.91-3-3.55-6.15c-.56-1-1.05-2.11-1.57-3.18s-1-2.17-1.37-3.28-.81-2.23-1.18-3.36l-.5-1.71c-.15-.57-.28-1.15-.42-1.73s-.23-1.17-.34-1.75-.21-1.17-.26-1.77A35.27,35.27,0,0,1,56,138.6v-.36h.38l49.9-.6,49.91-.36h.43l0,.42c-.27,2.42-.68,4.8-1.15,7.17s-1,4.73-1.68,7.06-1.34,4.65-2.15,6.93c-.41,1.13-.82,2.27-1.27,3.39s-.93,2.24-1.41,3.35a69.71,69.71,0,0,1-7.18,12.59c-.72,1-1.45,1.94-2.23,2.86s-1.6,1.83-2.42,2.72-1.69,1.73-2.62,2.51-1.86,1.55-2.81,2.31l-.11.09-.13-.08Zm0,0,25.82,15.15-.25,0c.92-.77,1.88-1.49,2.75-2.33s1.73-1.65,2.57-2.5,1.64-1.76,2.38-2.7,1.49-1.88,2.2-2.85a69.71,69.71,0,0,0,7.05-12.52c.48-1.11,1-2.21,1.38-3.33s.85-2.25,1.25-3.38c.79-2.27,1.48-4.57,2.11-6.89s1.16-4.66,1.62-7,.85-4.73,1.1-7.1l.39.41-49.91.59L56.34,139l.37-.37c0,1.17.07,2.33.22,3.49,0,.58.14,1.15.24,1.73s.19,1.15.33,1.72.25,1.14.4,1.7l.48,1.69c.36,1.12.71,2.23,1.15,3.32s.88,2.17,1.35,3.25,1,2.13,1.54,3.16c1.07,2.09,2.24,4.13,3.49,6.12a115.53,115.53,0,0,0,8.23,11.45,138,138,0,0,0,9.43,10.49l-.23,0Z"/><path class="j" d="M156,34.83l.21.15c.09.08.07,0,.1.05a1.14,1.14,0,0,0,.21.07,6.64,6.64,0,0,0,2.27,0c.51,0,1.07-.14,1.67-.24s1.28-.22,1.91-.31l2-.39a17.54,17.54,0,0,0,2-.51,19.91,19.91,0,0,0,2-.63l1.91-.78c.6-.29,1.15-.62,1.69-.91l.77-.42c.23-.14.47-.32.69-.47.45-.3.79-.64,1.13-.91l.87-.73.82-.55-.76.62-.81.79c-.31.3-.65.69-1.07,1-.21.17-.4.35-.65.54l-.76.5c-.52.34-1.07.74-1.65,1.08l-1.85.95a17.81,17.81,0,0,1-2,.85,19.35,19.35,0,0,1-2.06.71l-2,.56c-.69.16-1.27.33-1.89.49s-1.18.3-1.74.4a8.48,8.48,0,0,1-2.9.17,3,3,0,0,1-.6-.16,2.47,2.47,0,0,1-.45-.21l-.22-.13Z"/><path class="j" d="M162,34h.15l.45,0a5,5,0,0,1,.83.12,9.19,9.19,0,0,1,.89.24l1,.31a9.27,9.27,0,0,0,1,.27c.29.07.77.1,1.15.15l1.24.14c.41,0,.81,0,1.21.06l1.19,0c.36,0,.76,0,1.11,0s.66-.1,1-.15.55-.16.79-.24a2.17,2.17,0,0,0,.59-.27l.51-.27-.46.35a2.58,2.58,0,0,1-.56.36c-.23.11-.49.25-.79.37l-1,.31a10.67,10.67,0,0,1-1.12.21l-1.22.14c-.42,0-.85.1-1.27.12l-1.24,0c-.43,0-.77.05-1.26,0a9.92,9.92,0,0,1-1.2-.14l-1-.16-.78-.09a3.71,3.71,0,0,0-.48,0,3.14,3.14,0,0,0-.39,0l-.15,0Z"/><g class="k"><path class="l" d="M156,34.83l.21.15c.09.08.07,0,.1.05a1.14,1.14,0,0,0,.21.07,6.64,6.64,0,0,0,2.27,0c.51,0,1.07-.14,1.67-.24s1.28-.22,1.91-.31l2-.39a17.54,17.54,0,0,0,2-.51,19.91,19.91,0,0,0,2-.63l1.91-.78c.6-.29,1.15-.62,1.69-.91l.77-.42c.23-.14.47-.32.69-.47.45-.3.79-.64,1.13-.91l.87-.73.82-.55-.76.62-.81.79c-.31.3-.65.69-1.07,1-.21.17-.4.35-.65.54l-.76.5c-.52.34-1.07.74-1.65,1.08l-1.85.95a17.81,17.81,0,0,1-2,.85,19.35,19.35,0,0,1-2.06.71l-2,.56c-.69.16-1.27.33-1.89.49s-1.18.3-1.74.4a8.48,8.48,0,0,1-2.9.17,3,3,0,0,1-.6-.16,2.47,2.47,0,0,1-.45-.21l-.22-.13Z"/><path class="l" d="M162,34h.15l.45,0a5,5,0,0,1,.83.12,9.19,9.19,0,0,1,.89.24l1,.31a9.27,9.27,0,0,0,1,.27c.29.07.77.1,1.15.15l1.24.14c.41,0,.81,0,1.21.06l1.19,0c.36,0,.76,0,1.11,0s.66-.1,1-.15.55-.16.79-.24a2.17,2.17,0,0,0,.59-.27l.51-.27-.46.35a2.58,2.58,0,0,1-.56.36c-.23.11-.49.25-.79.37l-1,.31a10.67,10.67,0,0,1-1.12.21l-1.22.14c-.42,0-.85.1-1.27.12l-1.24,0c-.43,0-.77.05-1.26,0a9.92,9.92,0,0,1-1.2-.14l-1-.16-.78-.09a3.71,3.71,0,0,0-.48,0,3.14,3.14,0,0,0-.39,0l-.15,0Z"/></g><path class="j" d="M138.53,21.18s-1-.07-2.76-.13c-.89,0-2-.08-3.24-.21a17.2,17.2,0,0,1-4.25-.89l-.58-.21c-.26-.1-.37-.17-.57-.26a10.58,10.58,0,0,1-1.1-.57,17.26,17.26,0,0,1-2.21-1.51,52.93,52.93,0,0,1-4-3.79c-.64-.64-1.37-1.31-2.08-2s-1.44-1.28-2.22-1.88a38.69,38.69,0,0,0-4.89-3.39,30.56,30.56,0,0,0-5.37-2.54,50.33,50.33,0,0,0-5.56-1.71c-.92-.22-1.8-.48-2.7-.64L94.33,1,93.06.82,91.83.69,89.48.46A37.44,37.44,0,0,0,85.36.2l-.89,0c-.28,0-.55.1-.81.14s-.52.08-.74.15l-.66.24c-.84.28-1.48.54-1.92.72l-.68.27.67-.29c.43-.19,1.07-.48,1.9-.78l.65-.26c.24-.08.49-.11.75-.18s.54-.13.82-.16l.9-.06A37.8,37.8,0,0,1,89.5.15l2.37.16L93.11.4l1.28.18,2.66.36c.91.13,1.82.38,2.76.57a51.55,51.55,0,0,1,5.65,1.54,30.67,30.67,0,0,1,5.61,2.45,39.81,39.81,0,0,1,5.13,3.32c.81.59,1.58,1.24,2.35,1.87S120,12,120.72,12.63c1.4,1.29,2.7,2.55,4,3.55a15.36,15.36,0,0,0,2,1.29,9.31,9.31,0,0,0,1,.51c.16.07.4.18.5.21l.51.16a15.1,15.1,0,0,0,3.85.68c1.19.09,2.26.09,3.14.1,1.79,0,2.8.05,2.8.05Z"/><path class="j" d="M127.51,16.1l-.29,0a7.59,7.59,0,0,1-.87-.1,7.48,7.48,0,0,1-1.42-.37,9.76,9.76,0,0,1-1.63-.8A15.59,15.59,0,0,1,120.05,12c-.52-.57-1-1.17-1.54-1.77l-.77-.9-.38-.44-.42-.43-3.28-3.37a39.15,39.15,0,0,0-3-2.75,12.77,12.77,0,0,0-1.33-.94A8,8,0,0,0,108.2.8a6.51,6.51,0,0,0-.77-.25l-.28-.08.28.06a4.86,4.86,0,0,1,.8.19,8.68,8.68,0,0,1,1.17.5,12.71,12.71,0,0,1,1.43.85,39,39,0,0,1,3.26,2.53l3.55,3.13.45.39.45.44.84.85c.56.56,1.1,1.11,1.64,1.61a14.16,14.16,0,0,0,3.12,2.32,6.61,6.61,0,0,0,1.36.54,5.16,5.16,0,0,0,1,.19,4,4,0,0,0,.75,0h.29Z"/><path class="j" d="M47.45,30.48l-.63.12a9.17,9.17,0,0,1-.92.07c-.36,0-.67-.05-1.06-.08l-2.34-.35a6.26,6.26,0,0,0-1.22,0H41l-.34.07-.68.14a10.3,10.3,0,0,0-1.2.44,8.94,8.94,0,0,0-1.15.6,9.51,9.51,0,0,0-1,.68c-.32.21-.59.48-.86.69s-.47.46-.68.65-.36.38-.5.53l-.41.48.35-.53a6.2,6.2,0,0,1,.42-.6c.18-.22.36-.49.6-.75s.48-.56.78-.83a11.53,11.53,0,0,1,1-.84,9.5,9.5,0,0,1,1.13-.8,10.88,10.88,0,0,1,1.32-.68l.65-.24.33-.11.41-.09a9.23,9.23,0,0,1,1.45-.14l2.38,0c.31,0,.63,0,.84-.05s.34,0,.52-.1l.6-.21Z"/><path class="j" d="M49.85,31.37l-.51-.29a6.68,6.68,0,0,1-.64-.42,8.2,8.2,0,0,1-.74-.58c-.51-.42-1.05-.91-1.65-1.36a6.58,6.58,0,0,0-.94-.61,5.86,5.86,0,0,0-1-.43l-1.24-.22a10.29,10.29,0,0,0-1.19-.13c-.77-.08-1.52-.1-2.15-.13l-2.12-.1,2.11-.21c.64-.07,1.37-.16,2.19-.2.4,0,.84-.07,1.25,0l1.26,0a5.81,5.81,0,0,1,1.38.33,9.6,9.6,0,0,1,1.21.54c.73.41,1.37.83,1.89,1.15.26.15.51.31.69.39a3.8,3.8,0,0,0,.5.24l.55.21Z"/><g class="k"><path class="l" d="M47.45,30.48l-.63.12a9.17,9.17,0,0,1-.92.07c-.36,0-.67-.05-1.06-.08l-2.34-.35a6.26,6.26,0,0,0-1.22,0H41l-.34.07-.68.14a10.3,10.3,0,0,0-1.2.44,8.94,8.94,0,0,0-1.15.6,9.51,9.51,0,0,0-1,.68c-.32.21-.59.48-.86.69s-.47.46-.68.65-.36.38-.5.53l-.41.48.35-.53a6.2,6.2,0,0,1,.42-.6c.18-.22.36-.49.6-.75s.48-.56.78-.83a11.53,11.53,0,0,1,1-.84,9.5,9.5,0,0,1,1.13-.8,10.88,10.88,0,0,1,1.32-.68l.65-.24.33-.11.41-.09a9.23,9.23,0,0,1,1.45-.14l2.38,0c.31,0,.63,0,.84-.05s.34,0,.52-.1l.6-.21Z"/><path class="l" d="M49.85,31.37l-.51-.29a6.68,6.68,0,0,1-.64-.42,8.2,8.2,0,0,1-.74-.58c-.51-.42-1.05-.91-1.65-1.36a6.58,6.58,0,0,0-.94-.61,5.86,5.86,0,0,0-1-.43l-1.24-.22a10.29,10.29,0,0,0-1.19-.13c-.77-.08-1.52-.1-2.15-.13l-2.12-.1,2.11-.21c.64-.07,1.37-.16,2.19-.2.4,0,.84-.07,1.25,0l1.26,0a5.81,5.81,0,0,1,1.38.33,9.6,9.6,0,0,1,1.21.54c.73.41,1.37.83,1.89,1.15.26.15.51.31.69.39a3.8,3.8,0,0,0,.5.24l.55.21Z"/></g><path class="m" d="M56.34,136.29s25,31.55,49.45,36.78c0,0,28.76-11.37,48.13-35.47Z"/><path class="n" d="M56.34,136.29a156.3,156.3,0,0,0,11.52,12.58,94.2,94.2,0,0,0,14.33,3.6c1.07,5.67,4.31,9.92,14.13,11.39a22,22,0,0,0,6.84,6.6,30.47,30.47,0,0,1-2.52-6.16q2,.12,4.26.12c2.35,0,4.45-.1,6.35-.29a22.24,22.24,0,0,1-1.33,3,24.69,24.69,0,0,0,3.22-3.23c10.09-1.42,13.39-5.71,14.47-11.44a81.46,81.46,0,0,0,16.86-4.66,102.79,102.79,0,0,0,9.45-10.21Z"/><path class="o" d="M46.1,72.8s-3-9.29-13.48-4.72,9.26,27.71,9.46,33.35.13,6.66,3.49,5.85"/><g class="p"><path class="q" d="M44.74,85.73s-.35-.51-1-1.24a12.93,12.93,0,0,0-2.57-2.34,6.11,6.11,0,0,0-1.66-.82,6.81,6.81,0,0,0-.83-.17c-.27,0-.53,0-.77,0l-.63.16a1.8,1.8,0,0,0-.46.21l-.4.2.37-.24a2.32,2.32,0,0,1,.45-.26l.64-.22c.25,0,.52-.07.81-.09a7.5,7.5,0,0,1,.9.1,6.83,6.83,0,0,1,1.83.7,13.22,13.22,0,0,1,2.93,2.19,16.21,16.21,0,0,1,1.15,1.21Z"/></g><g class="p"><path class="q" d="M43.88,84.35a3.09,3.09,0,0,0-.47.14,5.34,5.34,0,0,0-1.18.57,3.71,3.71,0,0,0-.66.55,2.9,2.9,0,0,0-.51.79,2.64,2.64,0,0,0-.17,1,3.85,3.85,0,0,0,.17,1.06c.14.37.29.74.43,1.1s.37.64.54,1,.44.56.65.83.46.46.67.66a9.14,9.14,0,0,0,1.14.84c.31.17.49.25.49.25l-.51-.21a9.25,9.25,0,0,1-1.22-.75c-.23-.2-.49-.4-.74-.63s-.49-.51-.73-.8-.45-.64-.67-1l-.51-1.06a4.54,4.54,0,0,1-.31-1.23,3.56,3.56,0,0,1,.13-1.26,3.48,3.48,0,0,1,.57-1,4.31,4.31,0,0,1,.74-.74,6,6,0,0,1,1.33-.78l.41-.17.15-.05Z"/></g><path class="n" d="M46.1,72.8s-3-9.29-13.48-4.72,9.26,27.71,9.46,33.35.13,6.66,3.49,5.85"/><path class="o" d="M165.83,71.06s3-9.29,13.48-4.72-9.26,27.71-9.46,33.35-.13,6.66-3.49,5.84"/><g class="p"><path class="q" d="M166.4,83.38a14,14,0,0,1,1.15-1.21,13.55,13.55,0,0,1,2.93-2.2,6.8,6.8,0,0,1,1.83-.69,5.9,5.9,0,0,1,.9-.1c.29,0,.56.06.81.09l.64.22a3,3,0,0,1,.45.25l.37.25-.4-.21a1.81,1.81,0,0,0-.46-.2l-.63-.16c-.24,0-.5,0-.77,0a5.15,5.15,0,0,0-.83.18,6.37,6.37,0,0,0-1.66.81,13,13,0,0,0-2.57,2.35c-.62.73-1,1.24-1,1.24Z"/></g><g class="p"><path class="q" d="M168.31,81.64l.15,0,.41.16a6.14,6.14,0,0,1,1.33.79,4,4,0,0,1,.74.74,3.48,3.48,0,0,1,.57,1,3.29,3.29,0,0,1,.12,1.25,4.1,4.1,0,0,1-.3,1.23c-.17.36-.35.72-.51,1.07s-.45.66-.67,1-.5.55-.73.81-.51.43-.74.62a7.8,7.8,0,0,1-1.23.75,4.16,4.16,0,0,1-.5.21s.18-.08.48-.25a7.49,7.49,0,0,0,1.15-.83c.21-.21.45-.42.67-.67s.44-.53.64-.82.37-.63.55-1,.28-.73.43-1.1a3.73,3.73,0,0,0,.17-1.06,2.94,2.94,0,0,0-.17-1,3.29,3.29,0,0,0-.51-.78,3.32,3.32,0,0,0-.66-.55,5.46,5.46,0,0,0-1.18-.58,3.7,3.7,0,0,0-.47-.13Z"/></g><path class="r" d="M166.61,85.41c0-57.64-27.23-65.21-60.82-65.21S46.51,28.06,45,85.41c-1.09,40.37,0,56.62,38.1,63.43,1.34,7.08,6,12,22.71,12s21.38-4.88,22.72-12C166.61,142,169.15,123.77,166.61,85.41Z"/><g class="s"><path class="t" d="M164.72,74.75a52.73,52.73,0,0,0-1.38-9.68C162.47,61.86,163.28,66.81,164.72,74.75Z"/><path class="t" d="M166.61,85.41V85c-.69-3.65-1.33-7.14-1.89-10.2a162.93,162.93,0,0,1,0,18.36c-1.47-1.07-3.75,0-3.75,0,6,0,6,18.92,1.21,34.35s-33.65,21.38-33.65,21.38C166.61,142,169.15,123.77,166.61,85.41Z"/></g><path class="j" d="M157.46,31.8s10,3.75,11.86,7.24,4.78-2.14,4.78-2.14-2,6.44-4.78,6.7a7.4,7.4,0,0,0,3.71,0s-.44,1.08-3.71,1.35c0,0-.28,34.49-2.71,45.55,0,0-2.17-23.55-5.12-34,0,0-10-11.83-7.57-20.13S157.46,31.8,157.46,31.8Z"/><path class="u" d="M94.45,68c-1.49-.5-3.22-3-8.91-3s-9.66-3-12.25,0-6.55,5.2-7.3,7.42,0,.25,0,7.43,3,9.9,7.3,11.38,5.32,3.81,10,1.9S98.9,84.91,98.66,78.82A19.93,19.93,0,0,0,94.45,68Z"/><path class="v" d="M82.16,68.08c-5.48,0-9.93,4.93-9.93,11a12.16,12.16,0,0,0,.26,2.44v0c.23.72-.72.86-1.41.87a2.4,2.4,0,0,1,1.16.48A4.93,4.93,0,0,0,67.74,84c3.33-2.23,5.75.66,6.46,1.67,0,.08.1.16.16.24l.06.09v0a9.58,9.58,0,0,0,7.75,4.14c5.48,0,9.93-4.92,9.93-11S87.64,68.08,82.16,68.08Z"/><path class="v" d="M70.41,82.36a5.65,5.65,0,0,0,.66,0A2.84,2.84,0,0,0,70.41,82.36Z"/><path class="v" d="M92.09,78.45a9.94,9.94,0,1,1-9.93-10.37A10.16,10.16,0,0,1,92.09,78.45Z"/><path class="e" d="M92.09,78a9.93,9.93,0,1,1-9.93-9.93A9.94,9.94,0,0,1,92.09,78Z"/><path class="w" d="M88.3,70.22a9.33,9.33,0,1,1-6-2.13h-.1a10,10,0,1,0,6.14,2.14Z"/><path class="x" d="M89.76,76.91c-.92,0-1.66-.42-1.66-.94s.74-.94,1.66-.94a2.24,2.24,0,0,0-1.66-.76,2.66,2.66,0,1,0,2.38,2.64.28.28,0,0,0,0-.09A2.6,2.6,0,0,1,89.76,76.91Z"/><path class="y" d="M92.09,78c0-.08,0-.15,0-.22a48.33,48.33,0,0,1-19.83,0,1.5,1.5,0,0,0,0,.22,9.93,9.93,0,0,0,19.86,0Z"/><path class="z" d="M92.09,78.05v0c0-.08,0-.15,0-.22a48.33,48.33,0,0,1-19.83,0,1.5,1.5,0,0,0,0,.22v0A50,50,0,0,0,92.09,78.05Z"/><path class="v" d="M66.51,83s1.45-1.55,5.36-1.18C71.87,81.79,68.28,81.71,66.51,83Z"/><path class="v" d="M71.87,81.15a4.16,4.16,0,0,0-2.8-.65A9.73,9.73,0,0,1,71.87,81.15Z"/><g class="aa"><path class="ab" d="M82.85,87.31a9.32,9.32,0,0,1-9.31-9.25c-.79-.15-1.24-.26-1.29-.27a1.5,1.5,0,0,0,0,.22A9.92,9.92,0,0,0,91,82.47,9.31,9.31,0,0,1,82.85,87.31Z"/><path class="ab" d="M92.08,77.8h0c-1.25.27-2.48.47-3.67.63C89.6,78.27,90.83,78.07,92.08,77.8Z"/></g><path class="w" d="M74.49,71.71a51,51,0,0,1,13.16-2,9.91,9.91,0,0,0-13.16,2Z"/><path class="ac" d="M67.3,70.75s14.39-4.38,27.43.23c0,0-.4-6.5-4.14-7.89s-5.16-2.89-9.55-2-12.18,5.63-13.62,8.13A1.5,1.5,0,0,0,67.3,70.75Z"/><path class="ad" d="M91.6,63.65c2.23,2,2.5,6.33,2.5,6.33-11.66-4.13-24.54-.21-24.54-.21a1.34,1.34,0,0,1,.11-1.37c1.29-2.24,8.26-6.5,12.19-7.28a9.21,9.21,0,0,1,2.91-.19,10.09,10.09,0,0,0-3.73.15c-4.39.87-12.18,5.63-13.62,8.13a1.5,1.5,0,0,0-.12,1.54s14.39-4.38,27.43.23C94.73,71,94.4,65.71,91.6,63.65Z"/><path class="u" d="M117.7,67.88c1.48-.5,3.22-3,8.91-3s9.66-3,12.25,0,6.56,5.19,7.3,7.42,0,.25,0,7.42-3,9.9-7.3,11.39-5.32,3.81-10,1.9-15.58-8.27-15.34-14.37A19.92,19.92,0,0,1,117.7,67.88Z"/><path class="v" d="M130,67.94c5.48,0,9.93,4.93,9.93,11a12.26,12.26,0,0,1-.26,2.45v0c-.23.72.72.87,1.41.88a2.4,2.4,0,0,0-1.16.48,4.9,4.9,0,0,1,4.49,1.11c-3.33-2.23-5.75.66-6.46,1.67a1.88,1.88,0,0,1-.16.23.72.72,0,0,1-.06.1v0A9.58,9.58,0,0,1,130,90c-5.48,0-9.93-4.93-9.93-11S124.51,67.94,130,67.94Z"/><path class="v" d="M141.74,82.22a5.65,5.65,0,0,1-.66,0A2.84,2.84,0,0,1,141.74,82.22Z"/><path class="v" d="M120.06,78.31A9.94,9.94,0,1,0,130,67.94,10.16,10.16,0,0,0,120.06,78.31Z"/><path class="e" d="M120.06,77.87A9.93,9.93,0,1,0,130,67.94,9.94,9.94,0,0,0,120.06,77.87Z"/><path class="w" d="M123.85,70.08a9.32,9.32,0,1,0,6-2.14h.1a10,10,0,1,1-6.14,2.14Z"/><path class="x" d="M138.08,76.4c-.91-.08-1.62-.57-1.57-1.09s.83-.87,1.75-.79a2.29,2.29,0,0,0-1.59-.9,2.66,2.66,0,1,0,2.12,2.85.28.28,0,0,0,0-.09A2.84,2.84,0,0,1,138.08,76.4Z"/><path class="y" d="M120.06,77.87c0-.08,0-.15,0-.23a48.12,48.12,0,0,0,19.83,0,1.79,1.79,0,0,1,0,.23,9.93,9.93,0,1,1-19.86,0Z"/><path class="z" d="M120.06,77.91v0c0-.08,0-.15,0-.23a48.12,48.12,0,0,0,19.83,0,1.79,1.79,0,0,1,0,.23v0A50,50,0,0,1,120.06,77.91Z"/><path class="v" d="M145.63,82.83s-1.44-1.55-5.35-1.19C140.28,81.64,143.87,81.56,145.63,82.83Z"/><path class="v" d="M140.28,81a4.16,4.16,0,0,1,2.8-.65A9.73,9.73,0,0,0,140.28,81Z"/><path class="w" d="M137.66,71.57a50.6,50.6,0,0,0-13.16-2,9.91,9.91,0,0,1,13.16,2Z"/><path class="y" d="M120.27,75.82c.9.06,12.91-1.16,19.15-1a9.93,9.93,0,0,0-19.15,1Z"/><g class="aa"><path class="ab" d="M139.9,77.65h0c-.05,0-.63.16-1.63.33C139.24,77.81,139.81,77.67,139.9,77.65Z"/><path class="ab" d="M130.54,87.24a9.39,9.39,0,0,1-9.39-9.38l-1.08-.22c0,.08,0,.15,0,.23a9.92,9.92,0,0,0,19.66,1.93A9.38,9.38,0,0,1,130.54,87.24Z"/></g><path class="ae" d="M130.62,68.42a9.34,9.34,0,0,1,7.9,4.38,9.93,9.93,0,0,0-18.25,3c.15,0,.59,0,1.25-.06A9.33,9.33,0,0,1,130.62,68.42Z"/><path class="ae" d="M124.78,69.42a51.1,51.1,0,0,1,12.61,1.85,9.9,9.9,0,0,0-12.61-1.85Z"/><path class="ac" d="M146.26,66s-14.58-3.7-27.39,1.51c0,0,.09-6.51,3.76-8.07s5-3.13,9.45-2.46,12.43,5.06,14,7.5A1.48,1.48,0,0,1,146.26,66Z"/><path class="ad" d="M121.65,60c-2.14,2.08-2.2,6.43-2.2,6.43,11.46-4.66,24.5-1.35,24.5-1.35a1.33,1.33,0,0,0-.18-1.36c-1.38-2.18-8.55-6.11-12.5-6.71a9.33,9.33,0,0,0-2.92,0,10.19,10.19,0,0,1,3.73,0c4.42.67,12.43,5.06,14,7.5a1.48,1.48,0,0,1,.2,1.52s-14.58-3.7-27.39,1.51C118.87,67.5,119,62.23,121.65,60Z"/><path class="q" d="M116.24,98.41c.76.71,1.58,1.39,2.41,2s1.69,1.26,2.58,1.83c.44.3.89.59,1.35.85s.9.55,1.37.78.94.5,1.41.73l1.45.64c.48.21,1,.37,1.48.55a11.61,11.61,0,0,0,1.52.47,13.25,13.25,0,0,0,1.54.36l1.56.26,1.58.07a8.47,8.47,0,0,0,1.59-.07,8.35,8.35,0,0,0,1.57-.21l1.55-.37h0a4.1,4.1,0,0,1,1.87.52,2.35,2.35,0,0,1,.71.66,2.19,2.19,0,0,1,.34.9,2.19,2.19,0,0,0-.37-.89,2.23,2.23,0,0,0-.72-.61,3.9,3.9,0,0,0-1.83-.45h0l-1.55.42a8.67,8.67,0,0,1-1.59.27,9.59,9.59,0,0,1-1.6.13l-1.62,0-1.6-.2a25.14,25.14,0,0,1-3.15-.74c-.51-.17-1-.31-1.53-.51l-1.5-.61c-.49-.22-1-.46-1.46-.69s-1-.5-1.43-.75-.94-.53-1.4-.81c-.92-.55-1.82-1.16-2.69-1.79a30.4,30.4,0,0,1-2.55-2Z"/><path class="af" d="M100.91,114s-9.21,5.84-10.54,8.32l15.71-.4,15.09-2.55,5.74.13s-12.38-7.11-20.09-6.91Z"/><path class="ag" d="M90.37,122.36s24-6,36.54-2.82c0,0-10.53,4.43-14.41,3.89s-3.34.81-5.08,1.21S90.37,122.36,90.37,122.36Z"/><path class="e" d="M94.37,118.6s13.31-4.06,25.64-3.37C120,115.23,104.39,107.19,94.37,118.6Z"/><path class="ag" d="M90.37,122.36s8.46-9.56,16.51-9.26c10.07.38,20,6.44,20,6.44s-11-8.72-21.12-7.78C98.32,112.46,90.37,122.36,90.37,122.36Z"/><path class="ah" d="M103.93,133A6.2,6.2,0,0,1,105,131a7.69,7.69,0,0,1,1.66-1.59,7.85,7.85,0,0,1,1.12-.7,8.05,8.05,0,0,1,1.29-.51,5.85,5.85,0,0,1,1.37-.28,5.1,5.1,0,0,1,1.35,0,4.87,4.87,0,0,1,1.24.23,4.41,4.41,0,0,1,.55.16l.49.24a4.67,4.67,0,0,1,.81.45c.22.16.4.32.55.44s.44.42.44.42l-.61-.05c-.18,0-.41,0-.66-.1s-.54,0-.83-.06a5,5,0,0,0-1,0,6,6,0,0,0-1,0l-.53.06c-.17,0-.35.08-.53.11a7.11,7.11,0,0,0-1.08.27c-.36.08-.7.26-1.06.36s-.7.28-1,.45c-.67.3-1.28.65-1.82.94Z"/><g class="p"><path class="q" d="M105.13,109.48s.49.11,1.16.3a5.77,5.77,0,0,0,1.06.19.25.25,0,0,0,.14,0s-.09,0-.09.06,0,0,0,0l0-.17a3.07,3.07,0,0,0,0-.34c0-.18-.07-.37-.14-.6s-.1-.45-.15-.66a5.23,5.23,0,0,1-.14-1.26,3.83,3.83,0,0,1,0-.52,1.57,1.57,0,0,1,.11-.38,1.72,1.72,0,0,1,.13-.31s0,.12.07.33a3.08,3.08,0,0,0,.07.35c0,.14.09.29.13.45l.42,1.09a7.45,7.45,0,0,1,.45,1.4,2.38,2.38,0,0,1,0,.36v.18a1.25,1.25,0,0,1,0,.35.9.9,0,0,1-.19.34.94.94,0,0,1-.33.2,1.1,1.1,0,0,1-.53,0,3,3,0,0,1-1.23-.55A4.23,4.23,0,0,1,105.13,109.48Z"/></g><path class="q" d="M98.66,71.71a.49.49,0,0,0,.14.06.87.87,0,0,0,.38,0l.27,0,.28-.15a3.55,3.55,0,0,0,.59-.49c.18-.24.4-.45.58-.73s.41-.62.55-.87.18-.35.25-.52.07-.31.11-.47a4.87,4.87,0,0,0,.08-1.09,6.1,6.1,0,0,0-.11-1.13c-.06-.38-.14-.75-.23-1.11-.19-.72-.42-1.38-.61-2-.41-1.14-.72-1.92-.72-1.92A9.82,9.82,0,0,1,101.46,63a11.34,11.34,0,0,1,.93,1.94,8.65,8.65,0,0,1,.34,1.19,7.71,7.71,0,0,1,.16,1.29,6,6,0,0,1-.14,1.33c-.07.23-.15.46-.23.68s-.2.34-.29.51a8.67,8.67,0,0,1-.76.92,6.24,6.24,0,0,1-.78.7,3,3,0,0,1-.81.4L99.5,72l-.33,0a.83.83,0,0,1-.4-.19A.59.59,0,0,1,98.66,71.71Z"/><path class="q" d="M113.74,66.37a.3.3,0,0,1,0,.11.34.34,0,0,1-.3.2.94.94,0,0,1-.53-.2,2.44,2.44,0,0,1-.53-.45,6.27,6.27,0,0,1-.5-.61l-.13-.17a1.31,1.31,0,0,1-.12-.22c-.07-.13-.13-.26-.19-.39s-.13-.27-.2-.4-.09-.32-.13-.48a7.37,7.37,0,0,1-.2-1c0-.32-.05-.65-.07-1s0-.62,0-.92a11.47,11.47,0,0,1,.23-1.62,7.62,7.62,0,0,1,.48-1.52s.06.64.09,1.57c0,.46.06,1,.08,1.57s.08,1.17.15,1.77a7.19,7.19,0,0,0,.13.83c0,.13,0,.27.07.4s.1.29.14.43.1.27.14.4.06.19,0,.16l.09.17c.12.23.21.47.32.66a4,4,0,0,0,.31.5,1,1,0,0,0,.31.3.27.27,0,0,0,.24,0A.45.45,0,0,0,113.74,66.37Z"/><path class="n" d="M116.4,144.87s-17.87,2.24-14.35-3.59c0,0-5.63,4.08.61,5S116.4,144.87,116.4,144.87Z"/><g class="ai"><path class="q" d="M99.9,145.72l.94.13c.59.09,1.44.16,2.46.24.5,0,1,.07,1.63.08s1.2,0,1.83,0,1.28-.07,1.94-.07,1.33-.11,2-.21,1.33-.17,2-.34,1.28-.27,1.87-.48a14.87,14.87,0,0,0,1.71-.59,15.09,15.09,0,0,0,1.49-.65c.45-.24.86-.45,1.24-.63l.9-.58c.5-.33.8-.51.8-.51s-.24.25-.68.66c-.23.2-.5.45-.81.74l-1.17.82a10.55,10.55,0,0,1-1.46.83,11,11,0,0,1-1.74.74,13.12,13.12,0,0,1-1.93.59c-.67.19-1.37.26-2,.39s-1.39.13-2.08.18-1.36,0-2,0a24.37,24.37,0,0,1-3.52-.41A19.65,19.65,0,0,1,99.9,145.72Z"/></g><path class="n" d="M115.13,102.73s.1,2.52-2.21,2.52-2.64-.5-2.64-.5-1.69,3.12-7,2-3.54-2.31-3.54-2.31-2.2,2.11-4.11,1.31-1.91-1.61-1.91-1.61a33.34,33.34,0,0,1-9.26,5,7.89,7.89,0,0,0-3.54,4.52s.51-3.43.94-3.79c0,0,1.42-1,1.53-1.73L96.57,99s-.49,2.8.52,3.07,4.58-1.09,5.14-.34,1.9,2.68,4.28,2.38,6.2-2.66,6.2-2.66A6,6,0,0,0,115.13,102.73Z"/><path class="q" d="M112.5,101.66l.48.1c.3.06.72.14,1.17.19a2,2,0,0,0,1.17-.15s.05,0,.07-.06h0l-.13.1h0l.08-.09c.21-.19,0-.07,0,0a3.49,3.49,0,0,0,0-.61,4.67,4.67,0,0,0-.07-.81c0-.28-.08-.57-.14-.85-.1-.55-.22-1.08-.34-1.53-.06-.22-.12-.43-.18-.61a3.49,3.49,0,0,0-.2-.46,1.32,1.32,0,0,0-.26-.39h.13a1.07,1.07,0,0,1,.38.08,3,3,0,0,1,1.12.79,5.72,5.72,0,0,1,1,1.57,6.32,6.32,0,0,1,.35,1,4.69,4.69,0,0,1,.17,1.15,3.38,3.38,0,0,1-.21,1.34,1.85,1.85,0,0,1-.55.75l-.09.07h0l-.13.11h0l0,0-.09,0a1.74,1.74,0,0,1-.36.13,2.47,2.47,0,0,1-1.28,0,3.07,3.07,0,0,1-.87-.43,3.7,3.7,0,0,1-1-.92A3,3,0,0,1,112.5,101.66Z"/><path class="ah" d="M81.84,120a19.06,19.06,0,0,1-1.2-5.06,13,13,0,0,1,0-2.65c0-.23.07-.45.1-.67a4,4,0,0,1,.16-.66,5.06,5.06,0,0,1,.21-.66l.28-.64,0-.06.1-.09a7.92,7.92,0,0,0,.78-.75,3.6,3.6,0,0,0,.31-.4,1.51,1.51,0,0,0,.12-.2l.08-.19.1-.21.26-.13c.29-.14.57-.26.86-.41l.87-.51.87-.51c.28-.18.59-.32.86-.53l3.3-2.36a16.09,16.09,0,0,0,1.59-1.27l1.55-1.32,3.12-2.62L98.77,96l-1.08,3.16a7.12,7.12,0,0,0-.47,2.73c0,.16.07.1,0,0s0,0-.11,0l.2,0h.18a6.92,6.92,0,0,0,1.4-.28c.5-.14,1-.3,1.55-.47.27-.08.54-.17.85-.24a4.9,4.9,0,0,1,.5-.1c.12,0,.21,0,.35,0l.28,0h.1l.14,0,0,0a2.88,2.88,0,0,1,.54.31l.36.26.65.48a10.3,10.3,0,0,0,1.26.81,3.12,3.12,0,0,0,2.42.38,13.78,13.78,0,0,0,2.75-1.3,9,9,0,0,0,2.26-1.88,3.26,3.26,0,0,0,.61-1.12,1.79,1.79,0,0,0,.07-.56V98l-.09-.4a3.34,3.34,0,0,0-.59-1.08,11.83,11.83,0,0,0-1.05-1.11,11.1,11.1,0,0,1-1.21-1.31,3.35,3.35,0,0,1-.71-2c0-.26,0-.57,0-.8s0-.46-.09-.74L109.58,89c-.16-1.09-.29-2.2-.39-3.31a28.84,28.84,0,0,1-.1-3.35,20.78,20.78,0,0,1,.34-3.34,18.88,18.88,0,0,1,.86-3.22c.2-.52.45-1,.68-1.52l.84-1.43-.66,1.51c-.17.52-.35,1-.51,1.55a19.5,19.5,0,0,0-.56,3.2,20.62,20.62,0,0,0,0,3.24c0,1.08.17,2.15.31,3.22s.37,2.14.59,3.21l.32,1.63c0,.26.09.58.14.89s0,.56.06.85c0,.7.7,1.37,1.53,2.09a6.74,6.74,0,0,1,2.23,3l.1.4a5.11,5.11,0,0,1,.06.59,3.79,3.79,0,0,1-.11,1.06,4.93,4.93,0,0,1-.89,1.79,9.88,9.88,0,0,1-2.72,2.39,15.56,15.56,0,0,1-3.18,1.53,5.09,5.09,0,0,1-3.92-.49,10.17,10.17,0,0,1-1.53-1l-.67-.5-.3-.23c-.12-.06,0,0-.16-.11l-.05,0,.14,0h0l-.3.06c-.23,0-.48.13-.74.2-.51.16-1,.33-1.61.48a8.69,8.69,0,0,1-1.83.32,2.89,2.89,0,0,1-.65,0l-.2,0a1.51,1.51,0,0,1-.48-.2,1.89,1.89,0,0,1-.86-1.34,5.29,5.29,0,0,1,.12-2A13,13,0,0,1,96,98.48l1.48,1-3.26,2.59-1.63,1.29a18.41,18.41,0,0,1-1.67,1.23l-3.51,2.27a9,9,0,0,1-.92.5l-.94.47-.94.47c-.33.15-.69.28-1,.41l.35-.34-.18.34a3,3,0,0,1-.2.29,4.07,4.07,0,0,1-.43.49,7.48,7.48,0,0,1-1,.81l.14-.15-.29.52a4.68,4.68,0,0,0-.23.56,2.81,2.81,0,0,0-.19.58c0,.2-.12.39-.16.6a12.92,12.92,0,0,0-.23,2.5,18.25,18.25,0,0,0,.2,2.55A20.24,20.24,0,0,0,81.84,120Z"/><path class="n" d="M101.72,97.54s.33-3.15,2.21-3.36C103.93,94.18,99.5,94.32,101.72,97.54Z"/><path class="n" d="M63.91,46.69s28,11.47,52,7.85,37.63-13.33,37.63-13.33L71.87,36l-17.93,7c-5.26,9.66-8.45,23.26-9,42.34-1.09,40.37,0,56.62,38.1,63.43,1.34,7.08,6,12,22.71,12a61,61,0,0,0,7.93-.47c-.3,0-21,2.26-26.07-5.65s-1.93-9.38-1.93-9.38-29.35-5.43-33-18.71-7-37.95-3.83-42.72,1-4,.41-7.62,1-17.69,3-20.7S61,52.12,63.91,46.69Z"/><path class="j" d="M56.34,27s-12.65.8-17.21,7.78S45,91.64,45,91.64s0-30.33,6.87-40c0,0,16.53-4.56,10.89-18.78C62.74,32.87,62.55,28.31,56.34,27Z"/><path class="ad" d="M56.34,27s-12.65.8-17.21,7.78S45,91.64,45,91.64a177.2,177.2,0,0,1,1.88-24.4h0a15,15,0,0,0-2.12,5.56s-6.65-22.89-4-29.13,2,3.22,2,3.22,3.74-4.43,8.16-4.43-1.81,4.63-1.81,4.63,8-4.29,9.25-2,.17,3.17,0,3.31c3.86-2.83,7.43-7.72,4.34-15.52C62.74,32.87,62.55,28.31,56.34,27Z"/><path class="ad" d="M157.46,31.8s-1.07-3.76-3.54,4.55a13.71,13.71,0,0,0,.61,8.17,59.53,59.53,0,0,0,13.34-7.17C164.51,34.44,157.46,31.8,157.46,31.8Z"/><path class="ac" d="M136.26,16.5c-26-15.29-58.3-10.78-75-3.66C51.08,16.23,46.11,35.22,46.11,35.22a11.14,11.14,0,0,1,5.63,0c-3.59.5-5.63,6.64-5.63,6.64s5.63-6.64,14.6-1.19h0c.48.3,1,.59,1.54.87,9.26,4.84,24.68,7.09,24.68,7.09h0a127.26,127.26,0,0,0,24.77,1.68c27.77-.8,56.35-12.47,57.56-22.54S148.13,23.49,136.26,16.5Z"/><path class="aj" d="M74.49,43.27S58.79,39.45,62,36s9.07-3.62,9.07-3.62S64,28.29,60,31c0,0,2.69-6.8,5.67-7.6,0,0-8.89,1.28-11.5,5,0,0,1.05-16.16,24.71-20.53a82,82,0,0,0-17.6,5.05C51.08,16.23,46.11,35.22,46.11,35.22a11.14,11.14,0,0,1,5.63,0c-3.59.5-5.63,6.64-5.63,6.64s5.63-6.64,14.6-1.19h0c.48.3,1,.59,1.54.87,9.26,4.84,24.68,7.09,24.68,7.09h0a127.26,127.26,0,0,0,24.77,1.68,120.51,120.51,0,0,0,32.62-5.61C142.46,45.26,107.59,55.41,74.49,43.27Z"/><path class="ak" d="M91,8.45s18.28-1.47,32.1,4.7,13.21,6.53,16.6,7.44c8.35,2.22,24.73,2.19,27.07,5s-4,7.24-4,7.24,1.47-5.77-1.34-5.9S145,28.58,136.42,27s-14.72-11.14-21.93-10.6a17.22,17.22,0,0,1,5.57-.67s-15.36-4.56-19-4.16a20.26,20.26,0,0,1,4.31-.8C106.08,10.87,95.82,8.45,91,8.45Z"/><g class="al"><path class="l" d="M167.67,43.94l.24.1A.33.33,0,0,0,167.67,43.94Z"/><path class="l" d="M169.32,45c3.27-.27,3.71-1.35,3.71-1.35a7.4,7.4,0,0,1-3.71,0c1.79-.17,3.28-3,4.1-4.91-3,6.19-5.83,4-5.83,4l1.56,1.79L167.91,44c1,.87.82,7.61.82,7.61a3,3,0,0,1-.86-1.28c.88,3.94,0,15.53,0,15.53L167,61.31c1,4.83-.34,29.19-.34,29.19C169,79.44,169.32,45,169.32,45Z"/></g><path class="am" d="M109.1,130.88a10.09,10.09,0,0,1,5.39-.57c2.55.6,2.86,3.72,2.86,3.72S113.36,129.78,109.1,130.88Z"/><path class="am" d="M115.9,121.64s5.57-1,5.92-1.63-9.45-1.05-9.25,0S114.9,121.82,115.9,121.64Z"/><path class="an" d="M112.12,148.22s7.34-1.92,9-4.33c0,0,2.53,3.7,4.93,4.33,0,0,1.31,6.54-7,9.16,0,0,4.58-3.93,2.16-6.75S115.44,151.15,112.12,148.22Z"/><path class="am" d="M109.92,101.13s4.31-3,1.19-4.72A3.74,3.74,0,0,1,109.92,101.13Z"/><path class="e" d="M159.87,173.81a5,5,0,1,1-5-5A5,5,0,0,1,159.87,173.81Z"/><g class="ao"><rect class="ap" x="149.41" y="177.94" width="11.51" height="0.72"/><rect class="ap" x="149.41" y="176.53" width="11.51" height="0.72"/><rect class="ap" x="149.41" y="175.13" width="11.51" height="0.72"/><rect class="ap" x="149.41" y="173.73" width="11.51" height="0.72"/><rect class="ap" x="149.41" y="172.33" width="11.51" height="0.72"/><rect class="ap" x="149.41" y="170.92" width="11.51" height="0.72"/><rect class="ap" x="149.41" y="169.52" width="11.51" height="0.72"/><rect class="ap" x="149.41" y="168.12" width="11.51" height="0.72"/></g><path class="aq" d="M154.68,168.81h.19a5,5,0,0,0-5,5h4.8Z"/><g class="ar"><polygon class="e" points="154.23 169.03 154.3 169.16 154.45 169.19 154.34 169.29 154.37 169.44 154.23 169.37 154.1 169.44 154.12 169.29 154.01 169.19 154.16 169.16 154.23 169.03"/><polygon class="e" points="153.27 169.03 153.34 169.16 153.49 169.19 153.38 169.29 153.4 169.44 153.27 169.37 153.13 169.44 153.16 169.29 153.05 169.19 153.2 169.16 153.27 169.03"/><polygon class="e" points="152.31 169.03 152.38 169.16 152.53 169.19 152.42 169.29 152.44 169.44 152.31 169.37 152.17 169.44 152.2 169.29 152.09 169.19 152.24 169.16 152.31 169.03"/><polygon class="e" points="151.35 169.03 151.41 169.16 151.57 169.19 151.46 169.29 151.48 169.44 151.35 169.37 151.21 169.44 151.24 169.29 151.13 169.19 151.28 169.16 151.35 169.03"/><polygon class="e" points="150.39 169.03 150.45 169.16 150.6 169.19 150.49 169.29 150.52 169.44 150.39 169.37 150.25 169.44 150.27 169.29 150.16 169.19 150.32 169.16 150.39 169.03"/><polygon class="e" points="149.42 169.03 149.49 169.16 149.64 169.19 149.53 169.29 149.56 169.44 149.42 169.37 149.29 169.44 149.31 169.29 149.2 169.19 149.35 169.16 149.42 169.03"/><polygon class="e" points="148.46 169.03 148.53 169.16 148.68 169.19 148.57 169.29 148.6 169.44 148.46 169.37 148.33 169.44 148.35 169.29 148.24 169.19 148.39 169.16 148.46 169.03"/><polygon class="e" points="153.79 169.76 153.86 169.9 154.01 169.92 153.9 170.03 153.93 170.18 153.79 170.11 153.66 170.18 153.68 170.03 153.57 169.92 153.72 169.9 153.79 169.76"/><polygon class="e" points="152.83 169.76 152.9 169.9 153.05 169.92 152.94 170.03 152.97 170.18 152.83 170.11 152.69 170.18 152.72 170.03 152.61 169.92 152.76 169.9 152.83 169.76"/><polygon class="e" points="151.87 169.76 151.94 169.9 152.09 169.92 151.98 170.03 152.01 170.18 151.87 170.11 151.73 170.18 151.76 170.03 151.65 169.92 151.8 169.9 151.87 169.76"/><polygon class="e" points="150.91 169.76 150.97 169.9 151.13 169.92 151.02 170.03 151.04 170.18 150.91 170.11 150.77 170.18 150.8 170.03 150.69 169.92 150.84 169.9 150.91 169.76"/><polygon class="e" points="149.95 169.76 150.01 169.9 150.16 169.92 150.06 170.03 150.08 170.18 149.95 170.11 149.81 170.18 149.84 170.03 149.73 169.92 149.88 169.9 149.95 169.76"/><polygon class="e" points="148.98 169.76 149.05 169.9 149.2 169.92 149.09 170.03 149.12 170.18 148.98 170.11 148.85 170.18 148.88 170.03 148.77 169.92 148.92 169.9 148.98 169.76"/><polygon class="e" points="148.02 169.76 148.09 169.9 148.24 169.92 148.13 170.03 148.16 170.18 148.02 170.11 147.89 170.18 147.91 170.03 147.8 169.92 147.96 169.9 148.02 169.76"/><polygon class="e" points="154.23 170.41 154.3 170.55 154.45 170.57 154.34 170.68 154.37 170.83 154.23 170.76 154.1 170.83 154.12 170.68 154.01 170.57 154.16 170.55 154.23 170.41"/><polygon class="e" points="153.27 170.41 153.34 170.55 153.49 170.57 153.38 170.68 153.4 170.83 153.27 170.76 153.13 170.83 153.16 170.68 153.05 170.57 153.2 170.55 153.27 170.41"/><polygon class="e" points="152.31 170.41 152.38 170.55 152.53 170.57 152.42 170.68 152.44 170.83 152.31 170.76 152.17 170.83 152.2 170.68 152.09 170.57 152.24 170.55 152.31 170.41"/><polygon class="e" points="151.35 170.41 151.41 170.55 151.57 170.57 151.46 170.68 151.48 170.83 151.35 170.76 151.21 170.83 151.24 170.68 151.13 170.57 151.28 170.55 151.35 170.41"/><polygon class="e" points="150.39 170.41 150.45 170.55 150.6 170.57 150.49 170.68 150.52 170.83 150.39 170.76 150.25 170.83 150.27 170.68 150.16 170.57 150.32 170.55 150.39 170.41"/><polygon class="e" points="149.42 170.41 149.49 170.55 149.64 170.57 149.53 170.68 149.56 170.83 149.42 170.76 149.29 170.83 149.31 170.68 149.2 170.57 149.35 170.55 149.42 170.41"/><polygon class="e" points="148.46 170.41 148.53 170.55 148.68 170.57 148.57 170.68 148.6 170.83 148.46 170.76 148.33 170.83 148.35 170.68 148.24 170.57 148.39 170.55 148.46 170.41"/><polygon class="e" points="153.79 171.15 153.86 171.28 154.01 171.3 153.9 171.41 153.93 171.56 153.79 171.49 153.66 171.56 153.68 171.41 153.57 171.3 153.72 171.28 153.79 171.15"/><polygon class="e" points="152.83 171.15 152.9 171.28 153.05 171.3 152.94 171.41 152.97 171.56 152.83 171.49 152.69 171.56 152.72 171.41 152.61 171.3 152.76 171.28 152.83 171.15"/><polygon class="e" points="151.87 171.15 151.94 171.28 152.09 171.3 151.98 171.41 152.01 171.56 151.87 171.49 151.73 171.56 151.76 171.41 151.65 171.3 151.8 171.28 151.87 171.15"/><polygon class="e" points="150.91 171.15 150.97 171.28 151.13 171.3 151.02 171.41 151.04 171.56 150.91 171.49 150.77 171.56 150.8 171.41 150.69 171.3 150.84 171.28 150.91 171.15"/><polygon class="e" points="149.95 171.15 150.01 171.28 150.16 171.3 150.06 171.41 150.08 171.56 149.95 171.49 149.81 171.56 149.84 171.41 149.73 171.3 149.88 171.28 149.95 171.15"/><polygon class="e" points="148.98 171.15 149.05 171.28 149.2 171.3 149.09 171.41 149.12 171.56 148.98 171.49 148.85 171.56 148.88 171.41 148.77 171.3 148.92 171.28 148.98 171.15"/><polygon class="e" points="148.02 171.15 148.09 171.28 148.24 171.3 148.13 171.41 148.16 171.56 148.02 171.49 147.89 171.56 147.91 171.41 147.8 171.3 147.96 171.28 148.02 171.15"/><polygon class="e" points="154.23 171.8 154.3 171.94 154.45 171.96 154.34 172.06 154.37 172.22 154.23 172.14 154.1 172.22 154.12 172.06 154.01 171.96 154.16 171.94 154.23 171.8"/><polygon class="e" points="153.27 171.8 153.34 171.94 153.49 171.96 153.38 172.06 153.4 172.22 153.27 172.14 153.13 172.22 153.16 172.06 153.05 171.96 153.2 171.94 153.27 171.8"/><polygon class="e" points="152.31 171.8 152.38 171.94 152.53 171.96 152.42 172.06 152.44 172.22 152.31 172.14 152.17 172.22 152.2 172.06 152.09 171.96 152.24 171.94 152.31 171.8"/><polygon class="e" points="151.35 171.8 151.41 171.94 151.57 171.96 151.46 172.06 151.48 172.22 151.35 172.14 151.21 172.22 151.24 172.06 151.13 171.96 151.28 171.94 151.35 171.8"/><polygon class="e" points="150.39 171.8 150.45 171.94 150.6 171.96 150.49 172.06 150.52 172.22 150.39 172.14 150.25 172.22 150.27 172.06 150.16 171.96 150.32 171.94 150.39 171.8"/><polygon class="e" points="149.42 171.8 149.49 171.94 149.64 171.96 149.53 172.06 149.56 172.22 149.42 172.14 149.29 172.22 149.31 172.06 149.2 171.96 149.35 171.94 149.42 171.8"/><polygon class="e" points="148.46 171.8 148.53 171.94 148.68 171.96 148.57 172.06 148.6 172.22 148.46 172.14 148.33 172.22 148.35 172.06 148.24 171.96 148.39 171.94 148.46 171.8"/><polygon class="e" points="153.79 172.53 153.86 172.67 154.01 172.69 153.9 172.8 153.93 172.95 153.79 172.88 153.66 172.95 153.68 172.8 153.57 172.69 153.72 172.67 153.79 172.53"/><polygon class="e" points="152.83 172.53 152.9 172.67 153.05 172.69 152.94 172.8 152.97 172.95 152.83 172.88 152.69 172.95 152.72 172.8 152.61 172.69 152.76 172.67 152.83 172.53"/><polygon class="e" points="151.87 172.53 151.94 172.67 152.09 172.69 151.98 172.8 152.01 172.95 151.87 172.88 151.73 172.95 151.76 172.8 151.65 172.69 151.8 172.67 151.87 172.53"/><polygon class="e" points="150.91 172.53 150.97 172.67 151.13 172.69 151.02 172.8 151.04 172.95 150.91 172.88 150.77 172.95 150.8 172.8 150.69 172.69 150.84 172.67 150.91 172.53"/><polygon class="e" points="149.95 172.53 150.01 172.67 150.16 172.69 150.06 172.8 150.08 172.95 149.95 172.88 149.81 172.95 149.84 172.8 149.73 172.69 149.88 172.67 149.95 172.53"/><polygon class="e" points="148.98 172.53 149.05 172.67 149.2 172.69 149.09 172.8 149.12 172.95 148.98 172.88 148.85 172.95 148.88 172.8 148.77 172.69 148.92 172.67 148.98 172.53"/><polygon class="e" points="148.02 172.53 148.09 172.67 148.24 172.69 148.13 172.8 148.16 172.95 148.02 172.88 147.89 172.95 147.91 172.8 147.8 172.69 147.96 172.67 148.02 172.53"/><polygon class="e" points="154.23 173.18 154.3 173.32 154.45 173.34 154.34 173.45 154.37 173.6 154.23 173.53 154.1 173.6 154.12 173.45 154.01 173.34 154.16 173.32 154.23 173.18"/><polygon class="e" points="153.27 173.18 153.34 173.32 153.49 173.34 153.38 173.45 153.4 173.6 153.27 173.53 153.13 173.6 153.16 173.45 153.05 173.34 153.2 173.32 153.27 173.18"/><polygon class="e" points="152.31 173.18 152.38 173.32 152.53 173.34 152.42 173.45 152.44 173.6 152.31 173.53 152.17 173.6 152.2 173.45 152.09 173.34 152.24 173.32 152.31 173.18"/><polygon class="e" points="151.35 173.18 151.41 173.32 151.57 173.34 151.46 173.45 151.48 173.6 151.35 173.53 151.21 173.6 151.24 173.45 151.13 173.34 151.28 173.32 151.35 173.18"/><polygon class="e" points="150.39 173.18 150.45 173.32 150.6 173.34 150.49 173.45 150.52 173.6 150.39 173.53 150.25 173.6 150.27 173.45 150.16 173.34 150.32 173.32 150.39 173.18"/><polygon class="e" points="149.42 173.18 149.49 173.32 149.64 173.34 149.53 173.45 149.56 173.6 149.42 173.53 149.29 173.6 149.31 173.45 149.2 173.34 149.35 173.32 149.42 173.18"/><polygon class="e" points="148.46 173.18 148.53 173.32 148.68 173.34 148.57 173.45 148.6 173.6 148.46 173.53 148.33 173.6 148.35 173.45 148.24 173.34 148.39 173.32 148.46 173.18"/><polygon class="e" points="153.79 173.92 153.86 174.05 154.01 174.08 153.9 174.18 153.93 174.34 153.79 174.26 153.66 174.34 153.68 174.18 153.57 174.08 153.72 174.05 153.79 173.92"/><polygon class="e" points="152.83 173.92 152.9 174.05 153.05 174.08 152.94 174.18 152.97 174.34 152.83 174.26 152.69 174.34 152.72 174.18 152.61 174.08 152.76 174.05 152.83 173.92"/><polygon class="e" points="151.87 173.92 151.94 174.05 152.09 174.08 151.98 174.18 152.01 174.34 151.87 174.26 151.73 174.34 151.76 174.18 151.65 174.08 151.8 174.05 151.87 173.92"/><polygon class="e" points="150.91 173.92 150.97 174.05 151.13 174.08 151.02 174.18 151.04 174.34 150.91 174.26 150.77 174.34 150.8 174.18 150.69 174.08 150.84 174.05 150.91 173.92"/><polygon class="e" points="149.95 173.92 150.01 174.05 150.16 174.08 150.06 174.18 150.08 174.34 149.95 174.26 149.81 174.34 149.84 174.18 149.73 174.08 149.88 174.05 149.95 173.92"/><polygon class="e" points="148.98 173.92 149.05 174.05 149.2 174.08 149.09 174.18 149.12 174.34 148.98 174.26 148.85 174.34 148.88 174.18 148.77 174.08 148.92 174.05 148.98 173.92"/><polygon class="e" points="148.02 173.92 148.09 174.05 148.24 174.08 148.13 174.18 148.16 174.34 148.02 174.26 147.89 174.34 147.91 174.18 147.8 174.08 147.96 174.05 148.02 173.92"/></g><path class="as" d="M159.38,173.81c0,2.5-1.65,4.52-3.69,4.52s.3-2.11.3-4.6-2.34-4.43-.3-4.43S159.38,171.32,159.38,173.81Z"/><path class="d" d="M143.86,230.26s-.62,4.39-1,7c0,0,18.21-1,25.45-2.85,0,0,1-5.42,1.16-7.23C169.46,227.16,159.2,228.84,143.86,230.26Z"/><path class="d" d="M79.05,228.65a3,3,0,1,1-3-3A3,3,0,0,1,79.05,228.65Z"/><path class="d" d="M82.09,244.85a3,3,0,1,1-3-3A3,3,0,0,1,82.09,244.85Z"/><path class="r" d="M30.45,219.48s9.24,7.15,15.17,7.16-6.59-6-6.59-6,7.38,2.54,9.63.34-10.41-4.35-10.41-4.35,9.51,1.83,10.52-1.19-7.41-2.23-9.54-2.92c0,0,8.29-.25,9.92-3s-9.94-1.06-9.94-1.06-.57-7.5-2-6.89-1.36,5.86-1.36,5.86"/><path class="f" d="M32.16,146.65S10.85,160.18,0,176.88c0,0,4.86,36,32.5,47.64,0,0,5.48-13.89,2.38-21.64,0,0-18.86-16.81-18.6-24.55,0,0,11.34-12.66,19.75-12.4Z"/><path class="r" d="M185.13,216.46s-8.41,8.1-14.31,8.76,5.91-6.66,5.91-6.66-7.07,3.32-9.53,1.38,9.88-5.45,9.88-5.45-9.26,2.85-10.6,0,7.13-3,9.17-3.94c0,0-8.26.65-10.18-1.9s9.77-2.13,9.77-2.13-.25-7.52,1.25-7.07,2,5.68,2,5.68"/><path class="f" d="M175.56,144.24s22.65,11.15,35.24,26.58c0,0-.93,36.33-27.16,50.88,0,0-6.95-13.23-4.7-21.27,0,0,16.93-18.74,15.84-26.41,0,0-12.65-11.36-21-10.19Z"/></g></svg>